<svg width="64" height="64" viewBox="0 0 64 64" fill="none" xmlns="http://www.w3.org/2000/svg">
<path d="M64 64H0V0H64V64Z" fill="white"/>
<path d="M62.7442 24.0897L51.6215 12.284C51.3695 12.0157 50.9482 12.0032 50.6802 12.2553L46.0069 16.6584C45.7389 16.9105 45.7269 17.3324 45.9789 17.6006L57.1002 29.4064C57.3535 29.6746 57.7749 29.687 58.0429 29.4345L62.7162 25.0318C62.9842 24.7793 62.9976 24.3574 62.7442 24.0897ZM58.6815 25.4304C58.0975 25.9813 57.1776 25.9537 56.6269 25.3694C56.0762 24.785 56.1029 23.8646 56.6882 23.3141C57.2722 22.7637 58.1922 22.7913 58.7429 23.3756C59.2935 23.96 59.2655 24.8798 58.6815 25.4304ZM13.8642 13.899C13.5735 13.673 13.1549 13.7261 12.9282 14.0168L2.54823 27.3756C2.3229 27.6668 2.37488 28.0856 2.66555 28.3116L7.75754 32.2673C8.04821 32.4928 8.46688 32.4402 8.69221 32.1496L19.0722 18.7902C19.2976 18.4996 19.2455 18.0808 18.9549 17.8548L13.8642 13.899ZM8.97889 27.8184C8.48423 28.4548 7.56821 28.5698 6.93088 28.075C6.29488 27.5808 6.18022 26.6641 6.67489 26.0282C7.16956 25.3917 8.08554 25.2766 8.72154 25.7709C9.35754 26.2657 9.47356 27.1818 8.97889 27.8184Z" fill="#32BCE2"/>
<path d="M47.5974 40.7635L36.1907 31.8582L34.1107 33.7614C31.172 36.4005 28.5267 37.1093 26.528 37.1093C26.0174 37.1093 25.5467 37.0625 25.1267 36.9901C22.3814 36.5161 20.5214 34.7582 19.6814 33.2505C18.652 31.6145 18.948 29.5494 20.412 28.2057L28.6054 20.7562C27.6387 20.0166 26.5027 19.651 25.3694 19.651C23.776 19.651 22.2 20.3619 21.148 21.7207L13.148 32.0598C12.4947 32.8958 12.2014 33.9567 12.3307 35.0098L12.8467 39.2073C12.976 40.2598 13.5173 41.2187 14.3547 41.8713L28.376 52.8041C28.768 53.1093 29.2347 53.2593 29.6987 53.2593C30.284 53.2593 30.864 53.0218 31.2867 52.5603L31.9173 51.8718C32.7453 50.9682 32.652 49.5567 31.7134 48.7693L34.0667 50.7426C34.468 51.0791 34.9587 51.2458 35.4494 51.2458C35.9894 51.2458 36.528 51.0431 36.9427 50.6426L37.668 49.9437C38.5907 49.0546 38.536 47.5614 37.552 46.7415L39.2934 48.1921C39.6934 48.5259 40.1827 48.6911 40.6707 48.6911C41.2174 48.6911 41.76 48.4849 42.1774 48.0765L42.8173 47.4499C43.7147 46.5702 43.6707 45.1119 42.7213 44.2879L43.8707 45.2811C44.2787 45.6333 44.7787 45.8057 45.2774 45.8057C45.8934 45.8057 46.5054 45.5426 46.9307 45.0327L47.9267 43.8395C48.7067 42.9057 48.5574 41.5114 47.5974 40.7635ZM53.172 30.103L43.54 20.277C43.1214 19.8515 42.5734 19.5781 41.9827 19.5005L37.052 18.8546C36.276 18.753 35.496 18.9973 34.9173 19.5218L33.756 20.5775L22.66 30.6666C22.536 30.7811 22.26 31.1021 22.5107 31.489L22.58 31.6041C23.012 32.3994 24.0854 33.4275 25.6947 33.7057C27.6094 34.0322 29.7467 33.201 31.872 31.2915L36.02 27.4958L49.072 37.6859L53.1387 33.8718C54.188 32.8406 54.2027 31.1535 53.172 30.103Z" fill="#32BCE2"/>
</svg>
