<svg width="141" height="57" viewBox="0 0 141 57" fill="none" xmlns="http://www.w3.org/2000/svg">
<path d="M59.9042 10.0916L63.0997 18.9103C63.2294 19.299 63.3432 19.6229 63.4411 19.8822C63.5384 20.1409 63.6213 20.361 63.6943 20.5424C63.7673 20.7238 63.8267 20.8756 63.879 20.9987C63.9312 21.1217 63.9763 21.2286 64.0159 21.3194C64.1257 21.5881 64.2731 21.84 64.4537 22.0676C64.5814 22.2236 64.7364 22.3551 64.9114 22.4556C65.0584 22.5373 65.2212 22.5869 65.3889 22.6011C65.551 22.6146 65.7168 22.6209 65.8862 22.6209L65.9835 22.6981L66.042 23.0484L66.0024 23.1257C65.9123 23.1257 65.7754 23.1158 65.5934 23.0969C65.4058 23.0769 65.2172 23.067 65.0285 23.0673H61.2294L61.1907 23.0484L61.2492 22.6981L61.3267 22.6209C61.6243 22.6332 61.9215 22.5903 62.2033 22.4942C62.4111 22.411 62.515 22.1813 62.515 21.8053C62.515 21.5059 62.4144 21.0867 62.2132 20.5478C62.012 20.0088 61.7618 19.3322 61.4627 18.5178L61.1321 17.5855H56.7681L56.4366 18.5178C56.1363 19.3334 55.8861 20.01 55.6861 20.5478C55.4861 21.0855 55.3855 21.5047 55.3843 21.8053C55.3843 22.1807 55.4883 22.4104 55.6961 22.4942C55.9778 22.5903 56.2751 22.6333 56.5726 22.6209L56.6699 22.6981L56.7285 23.0484L56.6898 23.0673H53.2609C53.0752 23.0668 52.8896 23.0767 52.705 23.0969C52.5303 23.1158 52.3969 23.1257 52.306 23.1257L52.2861 23.0484L52.3258 22.6981L52.4231 22.6209C52.5915 22.6209 52.7537 22.6146 52.9096 22.6011C53.074 22.586 53.2333 22.5364 53.3771 22.4556C53.5524 22.3551 53.7078 22.2236 53.8357 22.0676C54.0185 21.8378 54.1722 21.5865 54.2933 21.3194C54.3355 21.248 54.3713 21.1732 54.4006 21.0957C54.433 21.0122 54.4843 20.8855 54.5564 20.7166C54.6285 20.5478 54.7186 20.3259 54.8267 20.0466C54.9348 19.7672 55.0798 19.4061 55.2546 18.9588C55.4294 18.5115 55.6447 17.9654 55.8979 17.3178C56.151 16.6702 56.46 15.8869 56.8231 14.9672C56.9913 14.5145 57.1666 14.0654 57.3492 13.6198C57.5318 13.1743 57.7009 12.7552 57.8564 12.3623C58.0123 11.9743 58.151 11.6312 58.2753 11.333C58.3997 11.0348 58.4861 10.8147 58.5384 10.6728L59.687 10.0898L59.9042 10.0916ZM57.0988 16.7546H60.8204L58.969 11.7623L57.0988 16.7546Z" fill="white"/>
<path d="M69.275 15.7454C69.6079 15.1938 70.0525 14.7175 70.5805 14.3469C71.1126 13.9714 71.7751 13.7837 72.5679 13.7837C72.937 13.7846 73.3042 13.8369 73.6588 13.9391C74.0193 14.0408 74.3591 14.205 74.6625 14.4241C74.9723 14.6499 75.2313 14.9378 75.4228 15.2693C75.6344 15.6442 75.77 16.0568 75.8219 16.4837C75.8609 16.8209 75.8838 17.1769 75.8904 17.5517C75.897 17.9266 75.9 18.3023 75.8994 18.679C75.8994 19.1454 75.9027 19.6149 75.9093 20.0874C75.9159 20.5598 75.9192 21.0293 75.9192 21.4958C75.933 21.7149 75.9655 21.9325 76.0165 22.1461C76.0432 22.2618 76.1045 22.3667 76.1922 22.447C76.3271 22.5585 76.4946 22.6234 76.6697 22.632C76.8703 22.6506 77.0748 22.6602 77.2832 22.6608L77.3417 22.7389L77.3805 23.0084L77.3417 23.0865C77.097 23.0458 76.8493 23.0263 76.6012 23.0281H75.8021C75.3084 23.0281 74.8604 23.041 74.4579 23.0668L74.3219 22.8728C74.3819 22.6569 74.4208 22.4358 74.4381 22.2126C74.4639 21.9401 74.4835 21.7006 74.4967 21.494C74.5225 20.9497 74.542 20.4152 74.5552 19.8907C74.5684 19.3661 74.575 18.9293 74.575 18.5802C74.575 18.2808 74.5652 17.9568 74.5453 17.6083C74.5322 17.3008 74.49 16.9953 74.4192 16.6957C74.2883 16.0867 74.0219 15.6334 73.6201 15.3358C73.215 15.036 72.7218 14.8781 72.2174 14.8867C71.8025 14.8832 71.3924 14.9754 71.0192 15.1562C70.6681 15.324 70.3484 15.5507 70.0741 15.8262C69.8287 16.0723 69.6218 16.354 69.4606 16.6616C69.3291 16.8905 69.2524 17.1465 69.2363 17.4098V20.3074C69.2363 20.4871 69.2363 20.6443 69.2462 20.7736C69.2561 20.903 69.2624 21.0233 69.275 21.1329C69.2877 21.2425 69.3012 21.3637 69.3147 21.4922C69.3314 21.6978 69.3615 21.9021 69.4048 22.1039C69.4345 22.2361 69.5062 22.3551 69.6093 22.4434C69.7346 22.5451 69.8872 22.6076 70.048 22.623C70.2385 22.6491 70.4305 22.662 70.6228 22.6617L70.7201 22.7587L70.7588 23.0111L70.7201 23.0892C70.63 23.0892 70.4922 23.082 70.3111 23.0695C70.13 23.0569 69.9336 23.0506 69.7264 23.0506H66.4534L66.4336 23.0111L66.4534 22.7416L66.5309 22.6635C66.7393 22.6635 66.9438 22.6539 67.1444 22.6347C67.314 22.6287 67.4761 22.5632 67.6021 22.4497C67.7068 22.3586 67.7789 22.2359 67.8075 22.1003C67.8486 21.9015 67.8787 21.7006 67.8976 21.4985C67.9102 21.291 67.9237 21.0808 67.9363 20.8697C67.9489 20.6586 67.9561 20.3155 67.9561 19.8494V16.7703C67.9561 16.5834 67.9561 16.4182 67.9462 16.2753C67.9363 16.1325 67.9327 16.0059 67.9264 15.8864C67.9201 15.767 67.9102 15.6475 67.8976 15.5182C67.8753 15.3872 67.836 15.2598 67.7804 15.1391C67.7466 15.0582 67.7008 14.9828 67.6444 14.9154C67.5223 14.765 67.3487 14.6649 67.157 14.6343C66.9575 14.6016 66.7556 14.5854 66.5534 14.5858L66.475 14.5068V14.2301L66.5534 14.1583H67.7372C68.0305 14.1611 68.3236 14.141 68.6138 14.0981L69.2958 13.9984L69.4129 14.1583C69.3362 14.3838 69.2901 14.6185 69.2759 14.8562C69.2498 15.1517 69.2309 15.4364 69.2183 15.7122L69.275 15.7454Z" fill="white"/>
<path d="M85.5641 17.8618L85.3695 18.8723H78.9785L79.1542 17.8618H85.5641Z" fill="white"/>
<path d="M100.333 10.2668L100.294 10.609L100.197 10.6854C99.9981 10.685 99.7997 10.6946 99.6021 10.7141C99.4423 10.723 99.2891 10.7807 99.1633 10.8794C99.0513 10.9805 98.9561 11.0988 98.8813 11.2297C98.7967 11.3722 98.7414 11.6249 98.7156 11.9878C98.7021 12.1674 98.6931 12.3381 98.6867 12.4935C98.6804 12.6489 98.6732 12.8303 98.6669 13.0378C98.6606 13.2453 98.657 13.4977 98.657 13.7959V18.3642C98.657 19.09 98.6603 19.6861 98.6669 20.1526C98.6735 20.619 98.6801 21.0175 98.6867 21.3481C98.6928 21.6786 98.7057 21.9735 98.7255 22.2328C98.7444 22.4915 98.7669 22.7772 98.793 23.0879L98.6372 23.1463H97.43L97.2345 22.9119L90.2975 12.5204C90.2975 12.6498 90.2975 12.78 90.2876 12.9093C90.2777 13.0387 90.2786 13.1977 90.2786 13.3845V19.1331C90.2786 19.3852 90.2816 19.6475 90.2876 19.9199C90.2948 20.1894 90.3011 20.4535 90.3074 20.7068C90.3138 20.9601 90.3237 21.1631 90.3372 21.3185C90.345 21.5695 90.4009 21.8168 90.502 22.0469C90.5769 22.1973 90.6873 22.3274 90.8237 22.426C90.9452 22.5103 91.0857 22.5636 91.2327 22.5813C91.4458 22.6101 91.6608 22.623 91.8759 22.62L91.9732 22.6972L92.0318 23.0475L91.993 23.0664H87.4146L87.375 23.0475L87.4336 22.6972L87.5309 22.62C87.7295 22.6218 87.928 22.6119 88.1255 22.5903C88.2832 22.5731 88.4341 22.5165 88.5642 22.426C88.6764 22.3361 88.7719 22.2273 88.8462 22.1044C88.9435 21.9553 89.0117 21.693 89.0507 21.3176C89.0633 21.2271 89.0732 21.1203 89.0804 20.9969C89.0867 20.8729 89.0894 20.7211 89.0894 20.5397V13.0162C89.0894 12.7965 89.0864 12.6087 89.0804 12.4531C89.0732 12.2977 89.0633 12.1414 89.0507 11.986C89.0334 11.7475 88.9739 11.514 88.875 11.2962C88.8043 11.1351 88.6981 10.992 88.5642 10.8776C88.436 10.7832 88.2842 10.726 88.1255 10.7123C87.9279 10.6922 87.7294 10.6826 87.5309 10.6836L87.4336 10.6072L87.375 10.265L87.4146 10.1877C87.5047 10.1877 87.6381 10.1931 87.8138 10.2039L88.3543 10.2363L88.8894 10.2686C89.0654 10.2794 89.1987 10.2848 89.2894 10.2848H90.4092C90.5639 10.2892 90.7183 10.2695 90.8669 10.2264L90.9651 10.2848C91.049 10.5434 91.1563 10.7938 91.2858 11.033C91.4492 11.3503 91.6441 11.703 91.8705 12.0911C92.0969 12.4791 92.3438 12.8935 92.6111 13.3342C92.8765 13.7749 93.1468 14.2088 93.4219 14.6357C94.4081 16.2166 95.2684 17.504 96.003 18.4981C96.7375 19.4921 97.2084 20.1397 97.4156 20.4409C97.4156 20.3511 97.4156 20.2613 97.4255 20.1885C97.4354 20.1157 97.4354 20.0196 97.4354 19.919V13.8112C97.4354 13.5004 97.4321 13.2348 97.4255 13.0144C97.4189 12.7941 97.4123 12.6061 97.4057 12.4504C97.3994 12.295 97.3894 12.1396 97.3768 11.9833C97.351 11.6204 97.2925 11.3677 97.2012 11.2252C97.121 11.0955 97.0227 10.9779 96.9093 10.8758C96.7751 10.7786 96.6162 10.721 96.4507 10.7096C96.2621 10.6905 96.0642 10.6809 95.857 10.6809L95.7786 10.6045L95.7201 10.2623L95.7597 10.1851C95.8498 10.1851 95.9804 10.1904 96.1489 10.2012L96.6651 10.2336L97.1813 10.2659C97.3507 10.2767 97.4804 10.2821 97.5714 10.2821H98.8768C99.045 10.2821 99.2204 10.2755 99.403 10.2623C99.5831 10.2497 99.7633 10.2371 99.9291 10.2237C100.095 10.2102 100.227 10.1976 100.318 10.1851L100.333 10.2668Z" fill="white"/>
<path d="M106.956 22.8746C107.006 22.664 107.036 22.4494 107.046 22.2333C107.066 21.9483 107.096 21.683 107.136 21.4375L107.117 21.3791C106.938 21.6241 106.735 21.8517 106.513 22.0591C106.277 22.2813 106.019 22.4796 105.744 22.651C105.463 22.8266 105.162 22.9669 104.847 23.0687C104.523 23.173 104.185 23.2255 103.845 23.2241C103.476 23.2309 103.11 23.1576 102.772 23.0094C102.476 22.8767 102.21 22.6833 101.993 22.4417C101.783 22.2028 101.623 21.9234 101.526 21.6207C101.421 21.3052 101.368 20.9749 101.37 20.6426C101.36 20.2007 101.475 19.765 101.701 19.3851C101.922 19.0263 102.222 18.722 102.578 18.4949C102.952 18.2709 103.355 18.0998 103.776 17.9866C104.217 17.8606 104.666 17.7658 105.12 17.7027C105.511 17.6468 105.904 17.6168 106.299 17.6129H107.273C107.267 17.2306 107.241 16.849 107.195 16.4695C107.166 16.2334 107.114 16.0009 107.039 15.7751C106.978 15.5906 106.881 15.4199 106.753 15.2728C106.626 15.1258 106.47 15.0053 106.296 14.9182C105.902 14.7334 105.47 14.643 105.035 14.6542C104.809 14.6558 104.585 14.6753 104.363 14.7125C104.126 14.75 103.896 14.8217 103.681 14.9254C103.466 15.0286 103.276 15.1773 103.125 15.3611C102.961 15.5691 102.867 15.8228 102.854 16.0868L102.776 16.1443H102.347L102.172 14.7296L102.231 14.611C102.348 14.4975 102.487 14.41 102.64 14.3542C102.878 14.2499 103.122 14.16 103.371 14.0847C103.677 13.9928 103.99 13.9202 104.306 13.8673C104.643 13.8083 104.985 13.7782 105.328 13.7775C105.77 13.7737 106.21 13.8357 106.634 13.9616C107.015 14.0736 107.37 14.2622 107.676 14.5158C107.973 14.7679 108.209 15.0831 108.368 15.4383C108.544 15.8458 108.631 16.2863 108.621 16.7299C108.621 17.2743 108.618 17.7566 108.611 18.177C108.605 18.5973 108.595 18.9866 108.582 19.3447C108.569 19.7039 108.559 20.0507 108.553 20.3938C108.546 20.7369 108.543 21.1025 108.543 21.4914C108.556 21.7106 108.589 21.9282 108.641 22.1417C108.669 22.2614 108.738 22.3677 108.836 22.4426C108.961 22.5561 109.124 22.6216 109.293 22.6276C109.494 22.6465 109.699 22.6564 109.907 22.6564L109.985 22.7345L110.005 23.004L109.985 23.0821C109.734 23.042 109.479 23.0225 109.225 23.0238H108.426C107.933 23.0238 107.485 23.0366 107.082 23.0624L106.956 22.8746ZM106.956 20.7764C106.995 20.7117 107.037 20.6345 107.082 20.5438C107.132 20.4399 107.163 20.3279 107.172 20.2132L107.27 18.2704H107.094C106.573 18.2712 106.053 18.3012 105.536 18.3602C105.058 18.4083 104.589 18.5225 104.143 18.6997C103.758 18.8512 103.414 19.0909 103.139 19.3994C102.879 19.6989 102.749 20.0809 102.749 20.5456C102.749 21.0378 102.892 21.4294 103.178 21.7204C103.322 21.8661 103.496 21.9803 103.687 22.0556C103.878 22.1309 104.083 22.1657 104.289 22.1579C104.567 22.1568 104.843 22.1107 105.107 22.0213C105.375 21.9334 105.633 21.8163 105.876 21.6719C106.102 21.5393 106.317 21.3891 106.519 21.2228C106.683 21.0924 106.829 20.9425 106.956 20.7764Z" fill="white"/>
<path d="M118.49 22.8547C118.541 22.6439 118.576 22.4299 118.597 22.2143C118.629 21.9292 118.659 21.6765 118.687 21.4562L118.667 21.3789C118.317 21.9087 117.859 22.3587 117.323 22.6993C116.774 23.0408 116.138 23.2165 115.491 23.205C114.751 23.205 114.111 23.0754 113.572 22.8161C113.058 22.5772 112.605 22.2252 112.247 21.7867C111.899 21.3515 111.638 20.8535 111.478 20.3199C111.308 19.7627 111.222 19.1832 111.225 18.6007C111.225 17.7205 111.361 16.972 111.634 16.3552C111.871 15.7913 112.223 15.2822 112.666 14.8597C113.062 14.4901 113.529 14.2057 114.04 14.0243C114.499 13.8567 114.983 13.7681 115.472 13.762C116.093 13.7617 116.707 13.9047 117.264 14.1797C117.835 14.4582 118.323 14.9276 118.726 15.5881L118.764 15.5109C118.738 15.2115 118.725 14.9231 118.726 14.6459V12.4318C118.726 12.0629 118.722 11.7422 118.716 11.4698C118.709 11.2003 118.703 10.9587 118.697 10.7512C118.69 10.5437 118.68 10.3371 118.667 10.1296C118.658 10.0004 118.621 9.87454 118.56 9.76047C118.516 9.68005 118.467 9.60236 118.414 9.52784C118.286 9.38697 118.114 9.29225 117.926 9.25837C117.728 9.21922 117.525 9.19966 117.323 9.19999L117.244 9.12094V8.86495L117.323 8.77513H118.511C118.805 8.7784 119.098 8.75768 119.388 8.71316L120.07 8.60986L120.187 8.78951C120.151 8.87986 120.128 8.9748 120.118 9.07155C120.099 9.20718 120.086 9.35359 120.08 9.50898C120.073 9.66437 120.067 9.81348 120.06 9.95809C120.053 10.1027 120.051 10.2105 120.051 10.2886C120.051 10.4964 120.047 10.6907 120.041 10.8716C120.034 11.0512 120.031 11.2668 120.031 11.5129C120.031 11.759 120.031 12.0572 120.021 12.4111C120.011 12.765 120.011 13.2078 120.011 13.7522V17.9899C120.011 18.5343 120.014 18.9816 120.021 19.3319C120.028 19.6822 120.034 19.9816 120.041 20.2301C120.047 20.4771 120.053 20.69 120.06 20.8723C120.066 21.0547 120.076 21.2603 120.09 21.4939C120.103 21.713 120.136 21.9306 120.187 22.1442C120.213 22.2602 120.275 22.3655 120.363 22.446C120.495 22.5557 120.658 22.6202 120.83 22.6301C121.031 22.6499 121.232 22.6595 121.434 22.6589L121.512 22.737L121.551 23.0065L121.512 23.0837C121.264 23.0439 121.013 23.0243 120.762 23.0253H119.951C119.47 23.0253 119.029 23.0385 118.626 23.0649L118.49 22.8547ZM112.703 18.5621C112.703 19.0018 112.762 19.4396 112.879 19.8636C112.986 20.2702 113.164 20.6548 113.405 20.9999C113.639 21.3301 113.945 21.6026 114.301 21.7966C114.703 22.0064 115.153 22.11 115.607 22.0975C116.053 22.1054 116.496 22.0133 116.902 21.828C117.259 21.6646 117.585 21.4413 117.866 21.1678C118.111 20.9288 118.319 20.6538 118.481 20.3523C118.611 20.1251 118.694 19.8739 118.724 19.6139V17.4582C118.68 17.1953 118.598 16.9402 118.481 16.701C118.331 16.3845 118.134 16.0928 117.896 15.836C117.628 15.5467 117.312 15.3068 116.961 15.1273C116.553 14.9247 116.101 14.8248 115.645 14.8363C115.18 14.8231 114.72 14.9335 114.311 15.1561C113.946 15.3654 113.633 15.6544 113.395 16.0013C113.149 16.3647 112.971 16.7694 112.869 17.1959C112.759 17.643 112.703 18.1017 112.703 18.5621Z" fill="white"/>
<path d="M128.29 22.8747C128.34 22.6642 128.37 22.4495 128.38 22.2334C128.4 21.9484 128.43 21.6831 128.47 21.4376L128.451 21.3792C128.272 21.6242 128.069 21.8518 127.847 22.0591C127.611 22.2814 127.353 22.4797 127.078 22.6511C126.797 22.8266 126.496 22.9669 126.181 23.0687C125.857 23.1732 125.518 23.2256 125.178 23.2241C124.809 23.231 124.444 23.1577 124.106 23.0094C123.809 22.877 123.544 22.6836 123.327 22.4418C123.117 22.2029 122.957 21.9235 122.86 21.6208C122.755 21.3053 122.702 20.9749 122.704 20.6426C122.694 20.2009 122.809 19.7653 123.034 19.3851C123.256 19.0263 123.556 18.722 123.912 18.495C124.286 18.2708 124.689 18.0997 125.11 17.9866C125.551 17.8607 126 17.7659 126.454 17.7028C126.844 17.6469 127.238 17.6169 127.633 17.613H128.607C128.601 17.2307 128.575 16.8491 128.529 16.4695C128.5 16.2335 128.448 16.0009 128.373 15.7752C128.249 15.4053 127.982 15.0995 127.633 14.9246C127.237 14.739 126.804 14.6486 126.367 14.6605C126.141 14.6622 125.916 14.6817 125.694 14.7189C125.457 14.7565 125.228 14.8282 125.012 14.9318C124.797 15.0352 124.608 15.1839 124.457 15.3674C124.294 15.5757 124.199 15.8292 124.187 16.0932L124.109 16.1507H123.68L123.505 14.736L123.563 14.6174C123.68 14.5039 123.82 14.4164 123.973 14.3605C124.211 14.2562 124.455 14.1662 124.704 14.0911C125.01 13.9989 125.323 13.9263 125.639 13.8737C125.976 13.8146 126.319 13.7846 126.661 13.7839C127.103 13.78 127.543 13.8421 127.967 13.968C128.348 14.0799 128.703 14.2685 129.009 14.5222C129.306 14.7745 129.542 15.0896 129.701 15.4447C129.877 15.8521 129.964 16.2926 129.954 16.7363C129.954 17.2806 129.951 17.763 129.944 18.1833C129.938 18.6037 129.928 18.9929 129.915 19.351C129.902 19.7103 129.892 20.057 129.886 20.4001C129.879 20.7433 129.876 21.1088 129.876 21.4978C129.89 21.7169 129.922 21.9345 129.973 22.1481C130.002 22.2677 130.071 22.3738 130.169 22.449C130.294 22.5624 130.457 22.628 130.626 22.634C130.827 22.6526 131.032 22.6621 131.24 22.6627L131.318 22.7409L131.337 23.0103L131.318 23.0885C131.067 23.0484 130.812 23.0288 130.558 23.0301H129.76C129.265 23.0301 128.817 23.043 128.414 23.0687L128.29 22.8747ZM128.29 20.7765C128.33 20.7118 128.371 20.6346 128.417 20.5438C128.467 20.4402 128.498 20.3281 128.507 20.2133L128.605 18.2705H128.425C127.904 18.2712 127.384 18.3012 126.867 18.3603C126.389 18.4083 125.92 18.5226 125.474 18.6998C125.089 18.8511 124.745 19.0908 124.47 19.3995C124.21 19.6989 124.08 20.081 124.08 20.5456C124.08 21.0379 124.223 21.4295 124.509 21.7205C124.654 21.8662 124.827 21.9803 125.018 22.0556C125.21 22.131 125.414 22.1658 125.62 22.1579C125.898 22.1568 126.174 22.1107 126.438 22.0214C126.706 21.9333 126.964 21.8162 127.207 21.672C127.433 21.5393 127.648 21.3892 127.851 21.2229C128.015 21.0929 128.163 20.9429 128.29 20.7765Z" fill="white"/>
<path d="M137.954 22.8747C138.004 22.6642 138.034 22.4495 138.044 22.2334C138.064 21.9486 138.093 21.6837 138.134 21.4376L138.115 21.3792C137.935 21.624 137.733 21.8516 137.511 22.0591C137.274 22.2812 137.016 22.4795 136.741 22.6511C136.461 22.8266 136.16 22.9669 135.845 23.0687C135.521 23.173 135.182 23.2255 134.842 23.2241C134.473 23.2309 134.107 23.1577 133.769 23.0094C133.473 22.8768 133.207 22.6834 132.99 22.4418C132.78 22.2029 132.62 21.9235 132.523 21.6208C132.418 21.3052 132.366 20.9749 132.367 20.6426C132.357 20.2008 132.472 19.7652 132.698 19.3851C132.919 19.0263 133.219 18.722 133.575 18.495C133.949 18.271 134.352 18.0999 134.773 17.9866C135.214 17.8608 135.662 17.766 136.116 17.7028C136.507 17.6469 136.901 17.6169 137.296 17.613H138.269C138.264 17.2307 138.237 16.849 138.191 16.4695C138.162 16.2335 138.11 16.0009 138.035 15.7752C137.911 15.4054 137.645 15.0995 137.296 14.9246C136.9 14.7389 136.466 14.6485 136.029 14.6605C135.804 14.6621 135.579 14.6817 135.357 14.7189C135.12 14.7563 134.891 14.828 134.675 14.9318C134.46 15.035 134.271 15.1837 134.12 15.3674C133.956 15.5755 133.862 15.8291 133.85 16.0932L133.771 16.1507H133.342L133.168 14.736L133.226 14.6174C133.343 14.5039 133.482 14.4163 133.635 14.3605C133.873 14.2563 134.117 14.1663 134.366 14.0911C134.673 13.9991 134.985 13.9265 135.301 13.8737C135.639 13.8146 135.981 13.7846 136.324 13.7839C136.765 13.78 137.205 13.8421 137.629 13.968C138.011 14.0799 138.365 14.2685 138.671 14.5222C138.968 14.774 139.205 15.0893 139.363 15.4447C139.54 15.8521 139.626 16.2926 139.616 16.7363C139.616 17.2806 139.613 17.763 139.606 18.1833C139.6 18.6037 139.59 18.9929 139.578 19.351C139.564 19.7103 139.555 20.057 139.548 20.4001C139.541 20.7432 139.539 21.1088 139.539 21.4977C139.552 21.7169 139.585 21.9345 139.636 22.1481C139.664 22.2677 139.733 22.374 139.831 22.449C139.957 22.5624 140.119 22.628 140.288 22.634C140.49 22.6526 140.695 22.6621 140.903 22.6627L140.98 22.7409L141 23.0103L140.98 23.0885C140.729 23.0484 140.475 23.0288 140.221 23.0301H139.422C138.928 23.0301 138.48 23.043 138.078 23.0687L137.954 22.8747ZM137.954 20.7765C137.993 20.7118 138.035 20.6346 138.081 20.5438C138.131 20.4398 138.161 20.3279 138.171 20.2133L138.269 18.2704H138.093C137.572 18.2713 137.052 18.3013 136.534 18.3603C136.057 18.4083 135.588 18.5226 135.142 18.6998C134.757 18.8513 134.413 19.091 134.138 19.3995C133.878 19.6989 133.749 20.081 133.749 20.5456C133.749 21.0379 133.891 21.4295 134.177 21.7205C134.321 21.8662 134.495 21.9803 134.686 22.0556C134.877 22.131 135.082 22.1658 135.287 22.1579C135.566 22.1569 135.843 22.1108 136.106 22.0214C136.375 21.9332 136.633 21.816 136.876 21.672C137.101 21.5391 137.316 21.389 137.518 21.2229C137.681 21.0924 137.828 20.9425 137.954 20.7765Z" fill="white"/>
<path d="M64.1601 44.4463H62.2096V40.3486C62.0223 40.2874 61.8266 40.2553 61.6295 40.2534C61.4072 40.2544 61.1874 40.3009 60.9838 40.3899C60.7802 40.4789 60.5971 40.6085 60.4457 40.7708C60.2831 40.9219 60.1532 41.1045 60.0639 41.3075C59.9747 41.5104 59.928 41.7294 59.9268 41.951V42.0651C59.9323 42.0996 59.9356 42.1344 59.9367 42.1693V45.2233C59.9367 46.0251 59.4799 46.7553 58.5664 47.414C57.7255 48.0278 56.882 48.3344 56.0358 48.3338C54.9961 48.3338 54.1018 48.0493 53.3529 47.4805C52.5415 46.8607 52.1357 46.0448 52.1357 45.0328C52.1357 43.9837 52.6018 43.0795 53.5339 42.3202C53.8258 42.0804 54.006 41.9609 54.0745 41.9609C54.0808 41.9609 54.0835 41.9672 54.0835 41.9798V44.6358C54.0835 45.1041 54.3024 45.4676 54.7402 45.7263C55.1323 45.9544 55.5802 46.0695 56.034 46.0586C56.515 46.0678 56.9881 45.9357 57.3943 45.6786C57.8147 45.4074 58.0249 44.8685 58.0249 44.0619C58.0249 39.7809 58.009 39.2402 57.9772 42.4397C57.9699 41.8283 58.0699 41.2203 58.2727 40.6432C58.5281 39.9524 58.9612 39.3406 59.5285 38.8693C59.8649 38.5788 60.3183 38.4019 60.8889 38.3384L62.4394 38.1678C63.0892 38.0138 63.6845 37.6858 64.161 37.2192L64.1601 44.4463Z" fill="white"/>
<path d="M76.7905 44.4468H67.7148V42.1698H73.4806V40.9662C73.4806 40.7866 73.3869 40.6237 73.1995 40.4776C73.0449 40.3421 72.8484 40.2635 72.6428 40.2548H68.8094V37.3149C68.9716 37.5848 69.1927 37.8147 69.4563 37.9877C69.7674 38.2033 70.056 38.3108 70.322 38.3102H73.4806C74.0506 38.3102 74.5182 38.4898 74.8833 38.8491C75.0604 39.0196 75.2004 39.2247 75.2945 39.4516C75.3886 39.6785 75.4348 39.9222 75.4301 40.1677V42.1689H76.7905V44.4468Z" fill="white"/>
<path d="M105.315 44.4471H95.7725L97.1337 42.1701H102.004L101.995 41.9141C101.989 41.4776 102.004 41.1956 102.042 41.0797C102.106 40.8839 102.293 40.6848 102.603 40.4824L103.954 39.6282V42.1701H105.315V44.4471ZM103.754 35.9006C103.76 36.029 103.738 36.1571 103.692 36.277C103.645 36.3969 103.575 36.506 103.484 36.5976C103.392 36.6878 103.283 36.7582 103.163 36.8045C103.042 36.8509 102.914 36.8722 102.785 36.8671C102.656 36.873 102.526 36.8521 102.405 36.8057C102.284 36.7594 102.174 36.6885 102.081 36.5976C101.992 36.5056 101.921 36.3964 101.875 36.2766C101.828 36.1568 101.807 36.0289 101.811 35.9006C101.807 35.7716 101.829 35.6431 101.875 35.5226C101.922 35.4021 101.992 35.2921 102.081 35.1991C102.173 35.1069 102.283 35.0348 102.404 34.9875C102.525 34.9401 102.655 34.9186 102.785 34.9242C102.914 34.9194 103.043 34.9414 103.163 34.9887C103.284 35.036 103.393 35.1076 103.484 35.1991C103.574 35.2918 103.645 35.4017 103.691 35.5223C103.738 35.6428 103.759 35.7715 103.754 35.9006Z" fill="white"/>
<path d="M134.446 43.4808C134.448 43.608 134.423 43.7341 134.374 43.8515C134.325 43.9689 134.253 44.0751 134.161 44.1634C134.072 44.2549 133.966 44.3274 133.848 44.3764C133.73 44.4253 133.604 44.4498 133.476 44.4482H128.215L129.575 42.1712H132.496V33.6821C132.49 33.4306 132.541 33.1809 132.647 32.9524C132.752 32.7238 132.909 32.5224 133.105 32.3636C133.548 32.0797 133.995 31.7953 134.446 31.5103V43.4808Z" fill="white"/>
<path d="M140.993 44.4457H139.043V33.7273C139.043 33.2153 139.259 32.7728 139.69 32.3997C140.128 32.1003 140.562 31.803 140.993 31.5078V44.4457Z" fill="white"/>
<path d="M129.631 42.1694H100.544V44.4455H129.631V42.1694Z" fill="white"/>
<path d="M111.224 42.1694H76.0947V44.4455H111.224V42.1694Z" fill="white"/>
<path d="M10.9355 53.9006C18.5932 56.8306 25.9311 57.0443 32.7185 52.5532C38.5086 48.2634 41.7095 42.68 41.2311 35.2607C36.2491 49.0699 26.296 55.5021 10.9355 53.9006Z" fill="white"/>
<path d="M12.0033 41.8282C10.9592 40.7492 10.0171 39.5766 9.18885 38.3252C7.9 38.7395 6.58432 39.0657 5.25098 39.3016C5.91413 40.5438 6.69165 41.722 7.57351 42.8208C8.41451 43.8692 9.34667 44.8415 10.3591 45.7265C12.0061 45.4912 13.6306 45.1198 15.2159 44.6163C14.0656 43.782 12.9907 42.8491 12.0033 41.8282Z" fill="white"/>
<path d="M33.3014 14.8472C32.2591 13.349 31.1843 11.9406 30.1203 10.6382C30.063 12.4293 29.8459 14.2118 29.4717 15.9646C30.4951 17.347 31.5023 18.8183 32.4519 20.3659C33.3303 21.7949 34.1636 23.2869 34.9068 24.8309C35.4736 23.0049 35.8636 21.1289 36.0717 19.2287C35.2014 17.7027 34.2654 16.235 33.3014 14.8472Z" fill="white"/>
<path d="M32.4516 20.3638C31.4237 24.4509 29.5442 28.2764 26.9354 31.5915C26.1324 32.612 25.2648 33.5805 24.3381 34.4909C23.7573 35.061 23.1531 35.608 22.5255 36.132C21.4907 36.9953 20.3994 37.789 19.2588 38.5078C16.9992 39.9323 14.559 41.05 12.0029 41.8312C12.9906 42.8527 14.0658 43.7862 15.2164 44.621C17.9629 43.7483 20.5694 42.4869 22.9561 40.8755C24.0431 40.1416 25.0813 39.3384 26.0642 38.4709C26.0579 38.4548 26.0525 38.4395 26.0471 38.4242L26.0904 38.4476C27.0349 37.611 27.9264 36.7167 28.7597 35.77C31.5571 32.5951 33.6516 28.8679 34.9066 24.8315C34.1589 23.2848 33.33 21.7928 32.4516 20.3638Z" fill="white"/>
<path opacity="0.11" d="M20.5459 0.988122L20.5707 0.967773L20.5459 0.988122Z" fill="white"/>
<path opacity="0.11" d="M20.582 0.958642L20.5936 0.94873L20.582 0.958642Z" fill="white"/>
<path opacity="0.11" d="M20.4229 1.09057L20.4407 1.07617L20.4229 1.09057Z" fill="white"/>
<path opacity="0.11" d="M20.4688 1.05261L20.4831 1.04102L20.4688 1.05261Z" fill="white"/>
<path opacity="0.11" d="M20.3789 1.12923L20.3903 1.11963L20.3789 1.12923Z" fill="white"/>
<path opacity="0.11" d="M20.6035 0.938366L20.6128 0.930664L20.6035 0.938366Z" fill="white"/>
<path opacity="0.11" d="M20.5078 1.01992L20.5384 0.994629L20.5078 1.01992Z" fill="white"/>
<path opacity="0.11" d="M20.6288 0.918945L20.6172 0.928857L20.6288 0.918945Z" fill="white"/>
<path opacity="0.27" d="M12.5762 8.93155L12.5814 8.92529L12.5762 8.93155Z" fill="white"/>
<path opacity="0.11" d="M12.5762 8.93155L12.5814 8.92529L12.5762 8.93155Z" fill="white"/>
<path opacity="0.27" d="M12.3408 9.20545L12.347 9.19824L12.3408 9.20545Z" fill="white"/>
<path opacity="0.11" d="M12.3408 9.20545L12.347 9.19824L12.3408 9.20545Z" fill="white"/>
<path opacity="0.11" d="M12.3467 9.1972L12.5764 8.92773L12.3467 9.1972Z" fill="white"/>
<path opacity="0.11" d="M12.5811 8.92521L12.8108 8.66113L12.5811 8.92521Z" fill="white"/>
<path opacity="0.11" d="M20.5703 0.967663L20.5796 0.959961L20.5703 0.967663Z" fill="white"/>
<path opacity="0.11" d="M20.0957 1.37061C20.2065 1.2754 20.3002 1.19096 20.3786 1.12988C20.3011 1.19545 20.2065 1.2754 20.0957 1.37061Z" fill="white"/>
<path opacity="0.11" d="M12.1084 9.47503L12.3408 9.20557L12.1084 9.47503Z" fill="white"/>
<path opacity="0.11" d="M20.5391 0.995923L20.5463 0.989746L20.5391 0.995923Z" fill="white"/>
<path opacity="0.11" d="M20.5938 0.948796L20.6024 0.941895L20.5938 0.948796Z" fill="white"/>
<path opacity="0.11" d="M20.4404 1.07573L20.467 1.05273L20.4404 1.07573Z" fill="white"/>
<path opacity="0.11" d="M20.4834 1.04085L20.5073 1.02051L20.4834 1.04085Z" fill="white"/>
<path opacity="0.11" d="M20.3906 1.11834L20.4221 1.09131L20.3906 1.11834Z" fill="white"/>
<path opacity="0.27" d="M15.6777 11.2653C16.357 11.3114 17.042 11.3345 17.7327 11.3345C21.5636 11.3389 25.3602 10.6152 28.9192 9.2021C27.9895 8.11885 27.0832 7.12453 26.2318 6.229C23.7476 7.23772 21.1392 7.91046 18.4759 8.22934C17.6003 9.13115 16.657 10.1479 15.6777 11.2653Z" fill="white"/>
<path d="M15.6777 11.2653C16.357 11.3114 17.042 11.3345 17.7327 11.3345C21.5636 11.3389 25.3602 10.6152 28.9192 9.2021C27.9895 8.11885 27.0832 7.12453 26.2318 6.229C23.7476 7.23772 21.1392 7.91046 18.4759 8.22934C17.6003 9.13115 16.657 10.1479 15.6777 11.2653Z" fill="white"/>
<path opacity="0.27" d="M28.9276 9.2125C27.9916 8.12207 27.0781 7.12056 26.2249 6.21875C21.4744 10.8257 15.2141 13.8347 8.2762 14.4024C7.62034 15.3276 6.97619 16.2887 6.35547 17.2821C7.13085 17.342 7.91524 17.3719 8.70864 17.3719C16.533 17.3764 23.6474 14.274 28.9276 9.2125Z" fill="white"/>
<path d="M28.9276 9.2125C27.9916 8.12207 27.0781 7.12056 26.2249 6.21875C21.4744 10.8257 15.2141 13.8347 8.2762 14.4024C7.62034 15.3276 6.97619 16.2887 6.35547 17.2821C7.13085 17.342 7.91524 17.3719 8.70864 17.3719C16.533 17.3764 23.6474 14.274 28.9276 9.2125Z" fill="white"/>
<path d="M12.5048 25.7505C10.3464 23.2156 8.02785 20.8206 5.5634 18.5801C4.94448 19.6319 4.35529 20.716 3.80664 21.828C5.8672 23.7668 7.82197 25.8144 9.66252 27.9619C10.4986 28.9374 11.3526 29.9829 12.2022 31.0922C13.1973 30.4284 14.1521 29.7065 15.0616 28.9302C14.2112 27.8048 13.3499 26.7422 12.5048 25.7505Z" fill="white"/>
<path d="M9.6659 27.9609C8.47646 28.7783 7.22971 29.5096 5.93526 30.149C4.88078 30.6707 3.7963 31.1299 2.6875 31.5242C2.85774 32.7264 3.11945 33.914 3.47038 35.0766C4.66239 34.7502 5.83285 34.35 6.97491 33.8784C8.80594 33.1237 10.558 32.1911 12.2056 31.0939C11.356 29.9819 10.5019 28.9364 9.6659 27.9609Z" fill="white"/>
<path d="M22.1623 27.7453C23.3777 26.4514 24.508 25.0805 25.5461 23.6414C24.4894 21.9545 23.3839 20.3368 22.2614 18.7964C21.2631 20.2642 20.1704 21.666 18.9902 22.9929C20.0794 24.5081 21.1434 26.0944 22.1623 27.7453Z" fill="white"/>
<path d="M9.76544 49.1339C7.02072 47.1039 4.76103 44.4931 3.14868 41.4889C1.53632 38.4847 0.611335 35.1618 0.440179 31.7588C0.202124 33.0841 0.0591185 34.4246 0.01225 35.7702C-0.158021 40.8326 1.4537 45.3812 4.41227 48.8941C5.32608 49.9767 6.35898 50.9535 7.49155 51.8061C8.77247 51.9689 10.0624 52.0505 11.3537 52.0504C12.4332 52.0503 13.5119 51.9934 14.5853 51.8798C12.874 51.1605 11.2558 50.2386 9.76544 49.1339Z" fill="white"/>
<path d="M13.0459 8.3939C13.6375 8.42923 14.2339 8.4466 14.8351 8.446C16.0519 8.44621 17.2675 8.37393 18.4756 8.22954C21.3739 5.24296 23.5117 3.5067 23.5126 3.5058C21.7703 1.8441 20.6297 0.918945 20.6297 0.918945L20.6171 0.929723L20.6063 0.938703L20.5973 0.945885L20.5847 0.956663L20.5739 0.965654L20.5486 0.986312L20.5423 0.991695L20.5108 1.01775L20.4865 1.0384L20.4721 1.05008L20.445 1.07344L20.4261 1.08871L20.3937 1.11655L20.382 1.12643C20.3036 1.192 20.2099 1.27194 20.0991 1.36715C17.5959 3.55254 15.2397 5.89987 13.0459 8.3939Z" fill="white"/>
<path d="M15.6771 11.265C16.6546 10.1476 17.5997 9.13081 18.4753 8.229C17.2672 8.3734 16.0516 8.44568 14.8348 8.44547C14.2342 8.44547 13.6378 8.4281 13.0456 8.39337L12.815 8.65656H12.8105L12.5807 8.92063L12.5762 8.92602L12.3465 9.19549L12.3411 9.20177L12.1087 9.47123C11.7945 9.8419 11.4777 10.2221 11.1582 10.612C12.6459 10.9429 14.1565 11.1612 15.6771 11.265Z" fill="white"/>
<path d="M40.4633 30.0082C39.9383 27.8338 39.2183 25.7109 38.3119 23.665C36.1444 37.6853 24.2812 48.5151 9.76588 49.134C9.33044 49.152 8.89289 49.1612 8.45325 49.1618C7.10041 49.1613 5.74909 49.0713 4.4082 48.8924C5.32201 49.9749 6.35492 50.9517 7.48749 51.8044C8.7684 51.9672 10.0584 52.0488 11.3497 52.0487C12.4291 52.0486 13.5078 51.9917 14.5812 51.878C27.0137 50.5595 37.1984 41.7192 40.4624 30.0073L40.4633 30.0082Z" fill="white"/>
</svg>
