<svg width="64" height="64" viewBox="0 0 64 64" fill="none" xmlns="http://www.w3.org/2000/svg">
<path d="M21.3942 33.1425C20.1169 31.8652 17.9969 31.9439 16.8236 33.3785C15.8036 34.6265 16.0222 36.4838 17.1609 37.6238L20.5475 41.0092C21.2142 41.6772 21.2142 42.7598 20.5475 43.4278C19.8782 44.0945 18.7969 44.0945 18.1275 43.4278L14.8409 40.1385C13.5876 38.8865 12.8702 37.2305 12.7982 35.4692L12.8249 27.4825C12.8249 25.5279 11.1422 23.9665 9.14754 24.1665C7.41288 24.3399 6.1582 25.9292 6.1582 27.6732V35.8892C6.1582 37.7785 6.82754 39.6092 8.04754 41.0518L15.5355 49.9132C15.6609 50.0639 15.8475 50.1492 16.0435 50.1492L29.7342 50.1692C30.1022 50.1692 30.4009 49.8719 30.4009 49.5025V45.4639C30.4009 43.3425 29.5582 41.3079 28.0582 39.8079L21.3942 33.1425ZM56.1849 24.1665C54.1902 23.9665 52.5075 25.5279 52.5075 27.4825L52.5342 35.4692C52.4622 37.2305 51.7449 38.8865 50.4915 40.1385L47.2049 43.4278C46.5369 44.0945 45.4542 44.0945 44.7862 43.4278C44.1182 42.7598 44.1182 41.6772 44.7862 41.0092L48.1715 37.6238C49.3102 36.4838 49.5289 34.6265 48.5089 33.3785C47.3355 31.9439 45.2155 31.8652 43.9382 33.1425L37.2742 39.8079C35.7742 41.3079 34.9315 43.3425 34.9315 45.4639V49.5025C34.9315 49.8719 35.2302 50.1692 35.5995 50.1692L49.2889 50.1492C49.4849 50.1492 49.6715 50.0639 49.7969 49.9132L57.2849 41.0518C58.5049 39.6092 59.1742 37.7785 59.1742 35.8892V27.6732C59.1742 25.9292 57.9195 24.3399 56.1849 24.1665Z" fill="#14AE5C"/>
<path d="M48.9317 53.8494H35.241C34.873 53.8494 34.5744 54.148 34.5744 54.516V57.1827C34.5744 57.552 34.873 57.8494 35.241 57.8494H48.9317C49.2997 57.8494 49.5984 57.552 49.5984 57.1827V54.516C49.5984 54.148 49.2997 53.8494 48.9317 53.8494ZM30.0917 53.8494H16.401C16.033 53.8494 15.7344 54.148 15.7344 54.516V57.1827C15.7344 57.552 16.033 57.8494 16.401 57.8494H30.0917C30.4597 57.8494 30.7584 57.552 30.7584 57.1827V54.516C30.7584 54.148 30.4597 53.8494 30.0917 53.8494ZM32.0797 16.5213C31.5717 16.5213 31.061 16.76 30.6784 17.176C30.313 17.572 30.1237 18.0694 30.1624 18.5373C30.221 19.2587 30.681 19.6693 31.341 19.6693H33.4784L33.249 17.532C33.1824 16.9173 32.7237 16.5213 32.0797 16.5213ZM46.401 20.816C46.401 13.452 40.4317 7.4827 33.0677 7.4827C25.705 7.4827 19.7344 13.452 19.7344 20.816C19.7344 28.18 25.705 34.1494 33.0677 34.1494C40.4317 34.1494 46.401 28.18 46.401 20.816ZM36.5397 29.472C36.4664 29.48 36.3944 29.484 36.3237 29.484C35.3144 29.484 34.4464 28.7227 34.337 27.6973L33.905 23.6693H31.341C28.621 23.6693 26.4024 21.6413 26.1824 18.952C26.0477 17.2853 26.6144 15.6827 27.7357 14.4653C28.873 13.2307 30.457 12.5213 32.0797 12.5213C34.777 12.5213 36.941 14.4494 37.225 17.1067L38.3144 27.2707C38.433 28.3694 37.637 29.3547 36.5397 29.472Z" fill="#14AE5C"/>
</svg>
