<svg width="64" height="64" viewBox="0 0 64 64" fill="none" xmlns="http://www.w3.org/2000/svg">
<path d="M64 64H0V0H64V64Z" fill="white"/>
<path d="M50.1761 50.092H19.3321C18.3668 50.092 17.5854 49.3094 17.5854 48.3454C17.5854 47.3801 18.3668 46.5974 19.3321 46.5974H45.0334C45.7694 46.5974 46.3668 46 46.3668 45.264V11.3334C46.3668 10.5974 45.7694 10 45.0334 10H17.6761C14.7308 10 12.3428 12.388 12.3428 15.3334V50C12.3428 52.9454 14.7308 55.3334 17.6761 55.3334H50.1761C51.6228 55.3334 52.7974 54.1601 52.7974 52.7134C52.7974 51.2654 51.6228 50.092 50.1761 50.092ZM22.9454 23.8054V21.0534C22.9454 16.22 29.2054 16.2547 30.9161 13.952C31.1361 13.656 31.5508 13.656 31.7708 13.952C33.4814 16.2547 39.7414 16.22 39.7414 21.0534V23.8054C41.1561 24.4814 42.1401 25.912 42.1401 27.5854C42.1401 29.2574 41.1561 30.688 39.7414 31.364V34.1161C39.7414 38.9494 33.4814 38.9147 31.7708 41.2174C31.5508 41.5134 31.1361 41.5134 30.9161 41.2174C29.2054 38.9147 22.9454 38.9494 22.9454 34.1161V31.364C21.5308 30.688 20.5468 29.2574 20.5468 27.5854C20.5468 25.912 21.5308 24.4814 22.9454 23.8054Z" fill="#FFA629"/>
<path d="M33.7788 26.7561C34.7002 26.7561 35.4455 26.0094 35.4455 25.0894C35.4455 24.1694 34.7002 23.4228 33.7788 23.4228C32.8588 23.4228 32.1122 24.1694 32.1122 25.0894C32.1122 26.0094 32.8588 26.7561 33.7788 26.7561ZM51.3242 11.8281C50.4028 11.8281 49.6575 12.5734 49.6575 13.4948V44.8494C49.6575 45.7708 50.4028 46.5161 51.3242 46.5161C52.2442 46.5161 52.9908 45.7708 52.9908 44.8494V13.4948C52.9908 12.5734 52.2442 11.8281 51.3242 11.8281ZM37.3762 27.3374C37.1348 27.8388 36.7922 28.3041 36.3469 28.7014C34.7029 30.1681 32.1388 30.1441 30.5202 28.6494C28.7002 26.9668 28.6575 24.1254 30.3935 22.3881C30.7508 22.0308 31.1548 21.7494 31.5868 21.5428C31.9055 21.3908 31.7882 20.9161 31.4348 20.9108C29.6482 20.8828 27.8549 21.5654 26.5135 22.9654C24.1242 25.4601 24.0562 29.4734 26.3668 32.0414C28.9468 34.9094 33.3668 34.9974 36.0602 32.3041C37.3882 30.9748 38.0375 29.2254 38.0095 27.4828C38.0028 27.1308 37.5282 27.0188 37.3762 27.3374Z" fill="#FFA629"/>
</svg>
