<svg width="46" height="33" viewBox="0 0 46 33" fill="none" xmlns="http://www.w3.org/2000/svg">
<path d="M20.0252 23.4474C20.0252 28.9474 16.2524 33 10.4479 33C4.64353 33 0 28.2237 0 20.4079C0 9.84211 7.40063 1.44737 17.5584 0V6.07895C11.8991 7.23684 7.83596 11 7.83596 15.6316C8.85174 15.0526 10.1577 14.6184 11.8991 14.6184C16.3975 14.6184 20.0252 17.8026 20.0252 23.4474ZM46 23.4474C46 28.9474 42.082 33 36.4227 33C30.4732 33 25.8297 28.2237 25.8297 20.4079C25.8297 9.84211 33.3754 1.44737 43.5331 0V6.07895C37.8738 7.23684 33.8107 11 33.8107 15.4868C34.8265 14.9079 36.1325 14.6184 37.7287 14.6184C42.2271 14.6184 46 17.8026 46 23.4474Z" fill="white"/>
</svg>
