<svg width="145" height="39" viewBox="0 0 145 39" fill="none" xmlns="http://www.w3.org/2000/svg">
<g filter="url(#filter0_dd_1099_46599)">
<mask id="mask0_1099_46599" style="mask-type:luminance" maskUnits="userSpaceOnUse" x="3" y="2" width="24" height="33">
<path d="M3 2.5H26.4803V34.5H3V2.5Z" fill="white"/>
</mask>
<g mask="url(#mask0_1099_46599)">
<path d="M9.22217 33.2674C13.5772 34.9682 17.7511 35.0902 21.6108 32.4852C24.9048 29.9928 26.7239 26.7513 26.4534 22.442C23.6201 30.4657 17.9602 34.2002 9.22217 33.2674Z" fill="white"/>
<path d="M9.82934 26.2571C9.23814 25.6332 8.70253 24.9527 8.22932 24.2245C7.49584 24.4651 6.74782 24.6535 5.98975 24.791C6.36655 25.5128 6.8082 26.1966 7.30912 26.8343C7.78879 27.4434 8.31877 28.0076 8.8946 28.5208C9.82995 28.3844 10.7535 28.1688 11.6563 27.876C11.0044 27.3932 10.3932 26.8516 9.82934 26.2571ZM21.9441 10.5866C21.3694 9.74878 20.766 8.93362 20.135 8.1427C20.1014 9.18329 19.9784 10.218 19.766 11.236C20.3474 12.0384 20.9199 12.8941 21.4599 13.7901C21.9675 14.6316 22.4338 15.4968 22.8576 16.3845C23.1785 15.3237 23.401 14.2346 23.5195 13.1311C23.0295 12.2588 22.5035 11.4098 21.9429 10.5866H21.9441Z" fill="white"/>
<path d="M21.4597 13.7913C20.8685 16.179 19.7979 18.4033 18.3211 20.3121C17.5742 21.2811 16.7336 22.1645 15.8132 22.948C14.0416 24.4548 12.0086 25.579 9.8291 26.257C10.3904 26.8496 11.0031 27.3924 11.6572 27.8772C13.9221 27.1473 16.0214 25.9318 17.8247 24.3062L17.8158 24.2778L17.8392 24.292C20.1696 22.1999 21.9057 19.4627 22.854 16.3856C22.4313 15.4962 21.9659 14.6303 21.4597 13.7913Z" fill="white"/>
<path opacity="0.11" d="M14.6662 2.55926L14.6841 2.54385L14.6662 2.56044V2.55926Z" fill="white"/>
<path opacity="0.27" d="M11.9189 8.5089C12.3047 8.53616 12.6949 8.5492 13.0874 8.54801C15.2666 8.55157 17.4256 8.13083 19.4494 7.31068C18.9539 6.72139 18.4442 6.1456 17.921 5.58386C16.5088 6.17053 15.0251 6.56045 13.5111 6.74534C13.0125 7.2692 12.4746 7.85942 11.9189 8.5089Z" fill="white"/>
<path d="M11.9189 8.5089C12.3047 8.53616 12.6949 8.5492 13.0874 8.54801C15.2666 8.55157 17.4256 8.13083 19.4494 7.31068C18.9539 6.72139 18.4442 6.1456 17.921 5.58386C16.5088 6.17053 15.0251 6.56045 13.5111 6.74534C13.0125 7.2692 12.4746 7.85942 11.9189 8.5089Z" fill="white"/>
<path opacity="0.27" d="M19.4585 7.31541C18.9603 6.72272 18.4469 6.14452 17.9189 5.58148C15.1639 8.32637 11.5535 10.007 7.71056 10.3341C7.33823 10.871 6.9726 11.4292 6.61816 12.0052C7.05982 12.0419 7.50594 12.0609 7.95654 12.0609C12.2173 12.0694 16.3244 10.3749 19.4585 7.31541Z" fill="white"/>
<path d="M19.4585 7.31541C18.9603 6.72272 18.4469 6.14452 17.9189 5.58148C15.1639 8.32637 11.5535 10.007 7.71055 10.3341C7.33822 10.871 6.9726 11.4292 6.61816 12.0052C7.05981 12.0419 7.50594 12.0609 7.95653 12.0609C12.2173 12.0694 16.3244 10.3749 19.4585 7.31541ZM10.1156 16.9201C8.88415 15.4443 7.56508 14.0532 6.16644 12.7554C5.81032 13.3698 5.47724 13.9988 5.16797 14.641C6.33767 15.7653 7.4499 16.9549 8.49994 18.2049C8.97513 18.7702 9.46151 19.3782 9.94454 20.0218C10.5103 19.6366 11.0537 19.217 11.5714 18.7667C11.1023 18.137 10.6169 17.5213 10.1156 16.9201Z" fill="white"/>
<path d="M8.50103 18.2049C7.26592 19.07 5.93215 19.7654 4.53174 20.2742C4.6279 20.9735 4.77772 21.6621 4.97675 22.3365C6.73698 21.845 8.4139 21.0648 9.94675 20.0242C9.48031 19.4041 8.99823 18.7975 8.50103 18.2049Z" fill="white"/>
<path d="M15.6075 18.0793C16.2973 17.3293 16.9401 16.5323 17.5318 15.6935C16.9405 14.7332 16.3177 13.7952 15.6646 12.8811C15.0948 13.7355 14.4729 14.5495 13.8029 15.3178C14.4345 16.2158 15.0364 17.1368 15.6075 18.0793ZM10.4229 6.84135C11.4526 6.90338 12.4854 6.87126 13.51 6.74535C15.158 5.01024 16.3746 4.00283 16.3757 3.99809C15.3806 3.03453 14.7365 2.49646 14.7365 2.49646L14.7287 2.50357L14.7231 2.50831L14.7175 2.51187L14.7108 2.51898L14.7041 2.52372L14.6896 2.53557L14.6717 2.55098L14.6583 2.56283L14.6504 2.56994L14.6348 2.58298L14.6236 2.59246L14.6057 2.60905L14.5979 2.61379L14.438 2.75483C13.0161 4.02171 11.6748 5.38686 10.4229 6.84135Z" fill="white"/>
<path d="M11.9192 8.50892C12.4749 7.85825 13.0127 7.26921 13.5102 6.74536C12.4857 6.87087 11.4529 6.90299 10.4231 6.84136L10.2912 6.99425L10.1604 7.14832C10.1156 7.1981 10.0732 7.25025 10.0284 7.3024V7.30595L9.89649 7.46358C9.71759 7.67929 9.53758 7.89973 9.35645 8.1261C10.2008 8.31953 11.0573 8.44748 11.9192 8.50892Z" fill="white"/>
<path d="M8.55683 30.5C7.00615 29.3349 5.71975 27.8182 4.79103 26.0603C3.8767 24.3263 3.34961 22.3931 3.25028 20.4094C3.11499 21.1797 3.03336 21.9572 3.00653 22.7383C2.90925 25.6787 3.82722 28.3228 5.50998 30.3614C6.03211 30.9924 6.61944 31.5593 7.26094 32.0514C8.60015 32.2272 9.95379 32.2423 11.2962 32.0965C10.3271 31.6803 9.40758 31.1445 8.55683 30.5Z" fill="white"/>
<path d="M26.0159 19.3936C25.7162 18.1275 25.3063 16.8936 24.7916 15.7077C23.5594 23.8499 16.8116 30.1385 8.55662 30.4976C7.53913 30.5428 6.51986 30.4964 5.50977 30.359C6.02969 30.9871 6.6167 31.5548 7.26184 32.049C8.60064 32.2253 9.95391 32.2408 11.296 32.0953C18.368 31.3284 24.1598 26.1942 26.0159 19.3936Z" fill="white"/>
</g>
</g>
<mask id="mask1_1099_46599" style="mask-type:luminance" maskUnits="userSpaceOnUse" x="33" y="8" width="112" height="22">
<path d="M33.189 8.4259H145V29.7592H33.189V8.4259Z" fill="white"/>
</mask>
<g mask="url(#mask1_1099_46599)">
<path d="M42.7901 10.596L46.8186 23.4659C46.9819 24.0324 47.125 24.5041 47.2491 24.8834C47.3721 25.2626 47.4795 25.585 47.5678 25.8481C47.6584 26.1136 47.7355 26.334 47.8026 26.5047C47.8697 26.6754 47.9233 26.8425 47.9725 26.9729C48.1112 27.3663 48.2968 27.7349 48.526 28.0668C48.6848 28.2943 48.8771 28.4863 49.0951 28.6333C49.2807 28.7554 49.4865 28.83 49.6978 28.8526C49.9024 28.8727 50.1115 28.881 50.3239 28.881L50.4469 28.9948L50.5207 29.5044L50.4715 29.6182C50.3552 29.6182 50.1853 29.6052 49.9549 29.5767C49.7185 29.5474 49.4807 29.5328 49.2427 29.5329H44.4617L44.4114 29.5044L44.4863 28.9948L44.5847 28.881C44.9592 28.8988 45.3338 28.8372 45.6894 28.6973C45.951 28.5752 46.0807 28.2386 46.0807 27.6899C46.0442 27.0637 45.9167 26.4473 45.7028 25.8623C45.4501 25.0789 45.1337 24.0917 44.7546 22.8994L44.3376 21.5388H38.8421L38.425 22.8994C38.1105 23.8876 37.7944 24.8752 37.4768 25.8623C37.2626 26.4476 37.1347 27.0645 37.0978 27.6911C37.0978 28.2386 37.2286 28.5752 37.4903 28.6973C37.8458 28.836 38.2204 28.8988 38.5949 28.881L38.7179 28.9948L38.7929 29.5044L38.7437 29.5329H34.4222C34.1874 29.5329 33.9537 29.5471 33.7211 29.5767C33.5534 29.6004 33.3857 29.6146 33.218 29.6182L33.1934 29.5044L33.2426 28.9948L33.3644 28.881C33.578 28.881 33.7837 28.881 33.9794 28.8526C34.1862 28.8289 34.3875 28.7542 34.5675 28.6333C34.79 28.4887 34.9857 28.2955 35.1456 28.0668C35.3737 27.7314 35.5649 27.364 35.7147 26.9729C35.7684 26.8697 35.8131 26.7595 35.8511 26.6469C35.8902 26.5249 35.9573 26.3412 36.0412 26.0934C36.1239 25.8469 36.2458 25.5222 36.3856 25.1157L36.9256 23.5299L37.7351 21.124C38.0549 20.1711 38.444 19.0262 38.9024 17.6929C39.1149 17.0315 39.3363 16.3761 39.5655 15.7231C39.7958 15.0712 40.0082 14.462 40.205 13.8967C40.394 13.3278 40.5829 12.83 40.7305 12.3939C40.8792 11.9577 40.9989 11.6366 41.0626 11.4292L42.5128 10.5794L42.7923 10.5972L42.7901 10.596ZM39.2535 20.3192H43.9451L41.6116 13.0339L39.2535 20.3192ZM54.6041 18.8437C55.0132 18.0505 55.5728 17.3556 56.2477 16.8028C56.9185 16.2564 57.7538 15.9826 58.7522 15.9826C59.2174 15.9814 59.6803 16.0549 60.1275 16.2019C60.5826 16.35 61.0108 16.5906 61.3921 16.9106C61.7834 17.2389 62.1099 17.6597 62.3514 18.1432C62.6175 18.692 62.7875 19.2929 62.8546 19.9163C62.9027 20.4069 62.9317 20.9272 62.9407 21.4736C62.9496 22.0212 62.9519 22.5675 62.9519 23.1198C62.9519 23.8001 62.9563 24.4852 62.9653 25.1737C62.9742 25.8612 62.9776 26.5486 62.9765 27.23C62.9944 27.55 63.0346 27.8677 63.0995 28.1794C63.1352 28.3465 63.2113 28.4994 63.3197 28.6179C63.4863 28.7777 63.6992 28.8726 63.9235 28.8869C64.1762 28.9154 64.4345 28.9284 64.695 28.9284L64.7699 29.0422L64.8191 29.438L64.7699 29.5518C64.4623 29.4921 64.1501 29.4636 63.8374 29.4665H62.8289C62.2072 29.4665 61.6426 29.4855 61.1349 29.5234L60.9639 29.2413C61.0399 28.9249 61.088 28.6013 61.1092 28.2766C61.1439 27.8795 61.1674 27.5299 61.1841 27.2277C61.2425 25.811 61.2753 24.3932 61.2825 22.9752C61.2825 22.5367 61.2713 22.065 61.2467 21.5577C61.2292 21.1092 61.1753 20.6632 61.0857 20.2244C60.918 19.3414 60.5826 18.6801 60.0772 18.2428C59.5792 17.8095 58.9526 17.5769 58.3084 17.5862C57.7828 17.5814 57.2652 17.7166 56.7922 17.982C55.9338 18.4699 55.2456 19.2368 54.8288 20.1699C54.6613 20.5086 54.5652 20.8819 54.547 21.2638V25.4866C54.547 25.7509 54.547 25.9785 54.5582 26.1669C54.5694 26.3554 54.5783 26.532 54.5962 26.692C54.613 26.852 54.6286 27.0262 54.6454 27.217C54.6644 27.5169 54.7013 27.8155 54.755 28.1094C54.793 28.3026 54.8836 28.4769 55.0122 28.6072C55.1671 28.75 55.3602 28.8382 55.5645 28.8597C55.8049 28.8988 56.0475 28.9189 56.2913 28.9166L56.412 29.0588L56.4612 29.4262L56.412 29.54C56.298 29.54 56.1258 29.54 55.8955 29.5115C55.6663 29.4831 55.4225 29.4831 55.1609 29.4831H51.035L51.0104 29.4274L51.035 29.0303L51.1334 28.9166C51.3951 28.9166 51.6522 28.9047 51.9061 28.8751C52.1061 28.8607 52.2959 28.7761 52.4455 28.6347C52.5951 28.4932 52.696 28.303 52.7323 28.094C52.7849 27.8049 52.8218 27.5133 52.8441 27.2194L52.8945 26.2949C52.9112 25.9832 52.9168 25.489 52.9168 24.8087V20.3169C52.9168 20.0407 52.9168 19.8001 52.9056 19.5927C52.8945 19.3853 52.8878 19.1969 52.881 19.0262C52.8723 18.8466 52.8603 18.6672 52.8453 18.4881C52.8156 18.2983 52.7657 18.1126 52.6966 17.9346C52.6542 17.8178 52.5962 17.708 52.5244 17.6087C52.3776 17.3919 52.1571 17.244 51.9094 17.1963C51.6595 17.1496 51.4062 17.1262 51.1524 17.1263L51.0541 17.0114V16.6084L51.1524 16.5029H52.6496C53.0186 16.5077 53.3887 16.478 53.7543 16.4164L54.6152 16.2694L54.7606 16.5029C54.6648 16.834 54.6077 17.1763 54.5906 17.5222C54.5571 17.9607 54.5314 18.3696 54.5168 18.7702L54.6041 18.8449V18.8437ZM75.1326 21.9346L74.8866 23.4078H66.8328L67.0542 21.9346H75.1326ZM93.748 10.8508L93.6988 11.3486L93.5758 11.4612C93.3253 11.4612 93.076 11.4754 92.8266 11.505C92.6225 11.5182 92.4282 11.6028 92.2743 11.7456C92.1334 11.8926 92.0127 12.0656 91.9165 12.2552C91.7823 12.6037 91.7119 12.9806 91.7085 13.3622C91.694 13.6265 91.6806 13.8742 91.6728 14.0994C91.6464 14.7327 91.6337 15.3665 91.6348 16.0004V22.6671C91.6348 23.7254 91.6392 24.5954 91.6482 25.2769C91.6482 25.9595 91.6638 26.5391 91.6728 27.0274C91.6828 27.5145 91.6974 27.94 91.722 28.318C91.7466 28.6973 91.7756 29.1121 91.8081 29.5649L91.618 29.6502H90.1018L89.8558 29.3089L81.1144 14.1432C81.1144 14.3329 81.1144 14.5213 81.101 14.7097C81.0876 14.8982 81.0899 15.1317 81.0899 15.4054V23.7966C81.0899 24.164 81.0932 24.5468 81.101 24.9438C81.101 25.3397 81.1189 25.7225 81.1256 26.0934C81.1335 26.462 81.1469 26.7489 81.1636 26.9859C81.1726 27.3521 81.2441 27.7136 81.3727 28.049C81.4667 28.2683 81.6053 28.4579 81.7753 28.6025C81.9273 28.721 82.1056 28.7961 82.2929 28.8206C82.5613 28.8632 82.8319 28.8834 83.1024 28.8774L83.2254 28.9912L83.2992 29.5009L83.25 29.5293H77.4795L77.4303 29.5009L77.5041 28.9912L77.6271 28.8774C77.8775 28.881 78.1269 28.8668 78.3762 28.836C78.5741 28.8099 78.7642 28.7281 78.9274 28.5954C79.0694 28.465 79.1902 28.3062 79.2841 28.1272C79.4406 27.7693 79.529 27.377 79.5413 26.9776C79.558 26.8449 79.5703 26.6896 79.5793 26.5083C79.5893 26.3269 79.5905 26.1077 79.5905 25.8517V14.8709C79.5905 14.5509 79.5905 14.276 79.5793 14.0484C79.5681 13.8209 79.558 13.5957 79.5413 13.3681C79.52 13.0222 79.4456 12.6824 79.321 12.3619C79.2316 12.1272 79.0974 11.9174 78.9274 11.7515C78.7709 11.614 78.5787 11.5301 78.3762 11.5109C78.1275 11.4804 77.8774 11.4658 77.6271 11.4671L77.5041 11.3557L77.4303 10.8579L77.4795 10.7429C77.5935 10.7429 77.7623 10.7429 77.9826 10.7666L78.658 10.8152L79.3333 10.8614C79.5547 10.8792 79.7213 10.8852 79.8364 10.8852H81.2486C81.4409 10.8911 81.6332 10.8614 81.8177 10.7998L81.9407 10.8852C82.0481 11.2632 82.1834 11.6294 82.3466 11.9791C82.5512 12.4437 82.7961 12.9569 83.0846 13.5234C83.3719 14.0899 83.6805 14.6967 84.0159 15.3367C84.3514 15.9791 84.6913 16.6155 85.0357 17.2389C86.279 19.5441 87.3636 21.425 88.2894 22.8792C88.8949 23.8188 89.4883 24.767 90.0694 25.7237C90.0694 25.5921 90.0694 25.4677 90.0828 25.3527C90.0962 25.2389 90.094 25.1086 90.094 24.9569V16.0466C90.094 15.5939 90.0906 15.2075 90.0828 14.8852L90.0582 14.0614C90.0504 13.8363 90.037 13.6063 90.0202 13.3788C90.0202 12.996 89.9442 12.6179 89.7999 12.2718C89.6993 12.085 89.5752 11.9135 89.431 11.7622C89.2683 11.6232 89.07 11.5394 88.8618 11.5216C88.6101 11.4918 88.357 11.4771 88.1038 11.4777L88.0054 11.3663L87.9316 10.8686L87.9808 10.7536C88.0948 10.7536 88.2603 10.7536 88.4727 10.7773L89.1212 10.8259L89.7742 10.8721C89.9867 10.8899 90.1532 10.8958 90.2651 10.8958H91.9098C92.1222 10.8958 92.3436 10.8958 92.5728 10.8674L93.237 10.8105C93.4494 10.7939 93.616 10.7737 93.7278 10.7536L93.748 10.8508ZM102.097 29.2496C102.158 28.9414 102.196 28.6286 102.209 28.3133C102.233 27.8985 102.269 27.5097 102.318 27.1518L102.294 27.0665C102.07 27.4244 101.815 27.7563 101.536 28.0573C101.241 28.3828 100.916 28.6758 100.565 28.932C100.213 29.1867 99.8304 29.3914 99.428 29.5412C99.0218 29.6902 98.5944 29.7639 98.1645 29.7592C97.7192 29.7703 97.2774 29.6732 96.8729 29.4754C96.4684 29.2775 96.112 28.9842 95.831 28.6179C95.5629 28.2625 95.3628 27.8551 95.2418 27.4185C95.1124 26.9558 95.0483 26.4753 95.0517 25.9927C95.0368 25.3504 95.1806 24.715 95.4687 24.1497C95.7483 23.6259 96.1262 23.1814 96.5746 22.8508C97.0464 22.5225 97.5574 22.2736 98.0907 22.1089C99.1206 21.7672 100.192 21.5844 101.271 21.566H102.498C102.49 21.009 102.458 20.4508 102.4 19.8961C102.366 19.5533 102.302 19.2146 102.21 18.884C102.064 18.3575 101.73 17.9123 101.278 17.6431C100.786 17.3727 100.236 17.2401 99.6818 17.2579C99.3979 17.2602 99.1148 17.288 98.8354 17.3409C98.535 17.3974 98.2447 17.5025 97.9744 17.6526C97.7038 17.8031 97.4657 18.02 97.2756 18.289C97.0666 18.5991 96.9466 18.9667 96.9301 19.3474L96.8317 19.4327H96.276L96.0569 17.3681L96.1307 17.1951C96.2744 17.031 96.4503 16.9023 96.6461 16.8182C96.9458 16.6677 97.2533 16.5385 97.5674 16.4294C97.9531 16.2957 98.3468 16.1896 98.7459 16.1118C99.1708 16.0253 99.6024 15.9826 100.035 15.9826C100.592 15.9779 101.147 16.068 101.68 16.2517C102.161 16.4152 102.608 16.6902 102.994 17.0588C103.368 17.4262 103.666 17.886 103.866 18.4052C104.087 19.0001 104.197 19.6425 104.186 20.2896C104.186 21.0849 104.186 21.7889 104.172 22.4016C104.159 23.0143 104.151 23.5832 104.136 24.1035C104.101 25.1472 104.085 26.1916 104.087 27.236C104.104 27.556 104.145 27.8748 104.21 28.1865C104.245 28.3569 104.331 28.5107 104.455 28.625C104.614 28.7886 104.818 28.8846 105.033 28.8929C105.287 28.9213 105.544 28.9343 105.806 28.9343L105.904 29.0481L105.929 29.444L105.904 29.5577C105.588 29.499 105.267 29.4704 104.946 29.4724H103.94C103.318 29.4724 102.753 29.4914 102.244 29.5293L102.097 29.2496ZM102.097 26.1871C102.146 26.0923 102.199 25.9785 102.258 25.8481C102.319 25.6952 102.356 25.5317 102.367 25.3646L102.49 22.532H102.269C101.613 22.5308 100.956 22.5734 100.303 22.6576C99.7019 22.7287 99.1115 22.8958 98.548 23.1554C98.0639 23.3746 97.6312 23.7243 97.2846 24.1746C96.9469 24.6428 96.7702 25.2389 96.7926 25.8481C96.7781 26.161 96.8194 26.4739 96.9122 26.769C97.005 27.0629 97.1493 27.3332 97.3338 27.5631C97.516 27.7752 97.7352 27.9423 97.9755 28.0514C98.2159 28.1604 98.4742 28.2114 98.7325 28.1995C99.0836 28.1995 99.4324 28.1308 99.7634 28.0004C100.102 27.8724 100.428 27.7006 100.734 27.4908C101.019 27.2964 101.29 27.076 101.546 26.8342C101.751 26.6446 101.937 26.4277 102.097 26.1871ZM116.636 29.2212C116.699 28.913 116.745 28.6001 116.77 28.2849C116.811 27.8689 116.848 27.5014 116.882 27.1909L116.857 27.0772C116.426 27.8385 115.849 28.4951 115.163 29.0043C114.484 29.4981 113.677 29.7557 112.854 29.7414C112.016 29.7638 111.186 29.5694 110.435 29.1749C109.777 28.8159 109.205 28.3018 108.764 27.6721C108.321 27.0269 107.992 26.3016 107.794 25.5317C107.58 24.7147 107.472 23.8705 107.475 23.0226C107.447 21.9037 107.623 20.7896 107.992 19.7409C108.283 18.9266 108.725 18.1826 109.293 17.553C109.781 17.0201 110.372 16.6039 111.024 16.3323C111.599 16.0901 112.211 15.9611 112.83 15.9518C113.619 15.9524 114.395 16.1614 115.089 16.5598C115.878 17.0421 116.518 17.7564 116.931 18.6161L116.979 18.5023C116.947 18.065 116.931 17.6443 116.931 17.2401V14.0093C116.931 13.4712 116.931 13.0019 116.917 12.6072C116.904 12.2102 116.901 11.8582 116.893 11.5572C116.885 11.2549 116.873 10.9527 116.857 10.6505C116.845 10.4627 116.799 10.2792 116.721 10.11C116.664 9.9931 116.601 9.8799 116.532 9.77108C116.376 9.56785 116.159 9.42733 115.917 9.37286C115.667 9.31737 115.413 9.28957 115.159 9.28989L115.06 9.17375V8.79923L115.159 8.66412H116.656C117.026 8.67004 117.396 8.64041 117.762 8.57404L118.621 8.42352L118.768 8.67952C118.723 8.81108 118.694 8.94974 118.682 9.09078C118.656 9.30278 118.64 9.51596 118.633 9.7296C118.633 9.94886 118.616 10.1681 118.608 10.3862C118.601 10.6043 118.597 10.756 118.597 10.8674C118.597 11.172 118.597 11.4564 118.583 11.7207C118.57 11.985 118.572 12.2955 118.572 12.6546C118.572 13.0137 118.572 13.4511 118.559 13.9678C118.545 14.4834 118.548 15.1317 118.548 15.9364V22.1195C118.548 22.916 118.551 23.5714 118.559 24.0881C118.559 24.6001 118.577 25.0363 118.583 25.4013C118.591 25.7663 118.601 26.0721 118.608 26.3376C118.616 26.6019 118.629 26.9041 118.646 27.2454C118.663 27.5654 118.703 27.8831 118.768 28.1948C118.803 28.3631 118.88 28.5148 118.989 28.6333C119.151 28.7908 119.359 28.8852 119.579 28.9012C119.831 28.9296 120.084 28.9438 120.337 28.9426L120.434 29.0564L120.483 29.4523L120.434 29.566C120.121 29.5073 119.804 29.4788 119.486 29.4807H118.466C117.86 29.4807 117.303 29.4997 116.797 29.5376L116.636 29.2212ZM109.342 22.9551C109.341 23.5952 109.415 24.2329 109.563 24.8537C109.698 25.4463 109.923 26.0081 110.226 26.513C110.535 27.0262 110.951 27.4422 111.435 27.7219C111.921 28.0016 112.458 28.1367 113.001 28.113C113.567 28.1231 114.128 27.9873 114.634 27.7172C115.084 27.4801 115.495 27.153 115.849 26.7536C116.158 26.404 116.42 26.0034 116.625 25.5625C116.789 25.2306 116.893 24.8656 116.931 24.4863V21.3385C116.875 20.9611 116.772 20.5933 116.625 20.2446C116.439 19.7878 116.19 19.3629 115.887 18.9835C115.556 18.5662 115.156 18.2157 114.708 17.9489C114.202 17.6499 113.629 17.499 113.05 17.5115C112.459 17.493 111.875 17.6556 111.368 17.9797C110.9 18.2922 110.505 18.7143 110.214 19.2134C109.902 19.7468 109.678 20.3394 109.551 20.964C109.411 21.6172 109.341 22.2852 109.342 22.9551ZM128.989 29.2496C129.05 28.9414 129.087 28.6286 129.099 28.3133C129.124 27.8985 129.16 27.5097 129.209 27.1518L129.184 27.0665C128.961 27.4206 128.707 27.7523 128.426 28.0573C128.13 28.3817 127.805 28.6746 127.456 28.932C127.099 29.188 126.718 29.3918 126.319 29.5412C125.912 29.6902 125.483 29.764 125.053 29.7592C124.607 29.7699 124.166 29.6725 123.761 29.4745C123.357 29.2765 123 28.9831 122.719 28.6167C122.452 28.2618 122.252 27.8553 122.131 27.4197C122.001 26.9567 121.938 26.4757 121.942 25.9927C121.927 25.3504 122.071 24.7151 122.359 24.1497C122.638 23.6259 123.016 23.1826 123.464 22.8508C123.937 22.5237 124.448 22.2736 124.98 22.1089C126.01 21.7682 127.081 21.5854 128.16 21.566H129.389C129.381 21.009 129.349 20.4508 129.29 19.8961C129.257 19.5532 129.193 19.2143 129.1 18.884C128.954 18.3574 128.619 17.9123 128.168 17.6431C127.676 17.3727 127.126 17.2402 126.572 17.2579C126.288 17.2604 126.005 17.2881 125.725 17.3409C125.425 17.3979 125.135 17.503 124.865 17.6526C124.591 17.8079 124.352 18.0251 124.165 18.289C123.956 18.599 123.837 18.9668 123.822 19.3474L123.723 19.4327H123.183L122.962 17.3681L123.036 17.1951C123.183 17.0292 123.359 16.9012 123.551 16.8182C123.852 16.6677 124.159 16.5385 124.473 16.4294C124.858 16.2958 125.252 16.1897 125.651 16.1118C126.076 16.0258 126.508 15.9826 126.94 15.9826C127.497 15.9767 128.052 16.068 128.585 16.2517C129.067 16.4152 129.514 16.6902 129.901 17.0588C130.274 17.4274 130.572 17.8872 130.772 18.4052C130.995 19.0051 131.103 19.6461 131.091 20.2908C131.096 21.5619 131.08 22.833 131.041 24.1035C131.009 25.1473 130.993 26.1916 130.992 27.236C131.009 27.556 131.05 27.8748 131.115 28.1865C131.15 28.3571 131.236 28.511 131.361 28.625C131.519 28.7874 131.719 28.8822 131.93 28.8929C132.184 28.9213 132.442 28.9343 132.704 28.9343L132.802 29.0481L132.827 29.444L132.802 29.5577C132.486 29.499 132.166 29.4704 131.845 29.4724H130.837C130.272 29.4705 129.707 29.4894 129.143 29.5293L128.989 29.2496ZM128.989 26.1871C129.038 26.0923 129.089 25.9785 129.148 25.8481C129.209 25.6952 129.247 25.5317 129.258 25.3646L129.381 22.532H129.16C128.503 22.5308 127.848 22.5734 127.196 22.6576C126.594 22.7287 126.002 22.8946 125.439 23.1554C124.954 23.3758 124.522 23.7243 124.175 24.1746C123.833 24.6553 123.66 25.2469 123.684 25.8481C123.671 26.161 123.711 26.4739 123.804 26.7678C123.897 27.0629 124.04 27.3332 124.224 27.5619C124.407 27.7752 124.625 27.9412 124.866 28.0502C125.106 28.1604 125.364 28.2114 125.623 28.1995C125.974 28.1995 126.323 28.1308 126.656 28.0004C126.994 27.8724 127.318 27.7006 127.624 27.4908C127.911 27.2956 128.182 27.076 128.435 26.8342C128.642 26.6446 128.828 26.4277 128.989 26.1871ZM141.168 29.2496C141.23 28.9414 141.268 28.6286 141.28 28.3133C141.305 27.8985 141.34 27.5097 141.39 27.1518L141.365 27.0665C141.142 27.4213 140.888 27.7531 140.607 28.0573C140.312 28.3822 139.988 28.6752 139.639 28.932C139.286 29.1857 138.904 29.3905 138.501 29.5412C138.094 29.69 137.666 29.7638 137.235 29.7592C136.768 29.7688 136.305 29.6608 135.885 29.444C135.505 29.2477 135.169 28.9658 134.902 28.6179C134.634 28.2627 134.434 27.8552 134.313 27.4185C134.183 26.9558 134.119 26.4753 134.123 25.9927C134.108 25.3504 134.252 24.715 134.54 24.1497C134.812 23.6344 135.189 23.1904 135.645 22.8508C136.118 22.5225 136.629 22.2736 137.161 22.1089C138.191 21.7669 139.262 21.5841 140.342 21.566H141.57C141.562 21.009 141.529 20.4508 141.471 19.8961C141.437 19.5534 141.373 19.2146 141.281 18.884C141.135 18.3574 140.8 17.9123 140.349 17.6431C139.856 17.3727 139.307 17.2402 138.753 17.2579C138.469 17.2602 138.185 17.2879 137.906 17.3409C137.606 17.3979 137.316 17.503 137.046 17.6526C136.775 17.8031 136.537 18.02 136.346 18.289C136.137 18.5992 136.017 18.9668 136.001 19.3474L135.904 19.4327H135.364L135.129 17.3681L135.203 17.1951C135.351 17.0292 135.526 16.9012 135.718 16.8182C136.019 16.6677 136.327 16.5385 136.64 16.4294C137.025 16.2957 137.419 16.1896 137.818 16.1118C138.243 16.0259 138.675 15.9827 139.107 15.9826C139.664 15.9779 140.219 16.068 140.752 16.2517C141.233 16.4152 141.68 16.6902 142.066 17.0588C142.441 17.4262 142.739 17.886 142.938 18.4052C143.162 18.9989 143.27 19.6425 143.258 20.2896C143.258 21.0837 143.253 21.7877 143.244 22.4016C143.244 23.0167 143.224 23.5832 143.209 24.1035C143.174 25.1473 143.158 26.1916 143.16 27.236C143.176 27.556 143.218 27.8748 143.283 28.1865C143.317 28.3569 143.403 28.5107 143.527 28.625C143.687 28.7886 143.891 28.8846 144.105 28.8929C144.359 28.9213 144.618 28.9343 144.878 28.9343L144.978 29.0481L145.002 29.444L144.978 29.5577C144.662 29.499 144.341 29.4705 144.02 29.4724H143.012C142.39 29.4724 141.826 29.4914 141.317 29.5293L141.168 29.2496ZM141.168 26.1871C141.217 26.0923 141.27 25.9785 141.329 25.8481C141.39 25.6952 141.428 25.5317 141.439 25.3646L141.562 22.532H141.34C140.684 22.5308 140.029 22.5734 139.377 22.6576C138.774 22.7287 138.183 22.8946 137.619 23.1554C137.135 23.3746 136.701 23.7243 136.356 24.1746C136.014 24.6553 135.841 25.2469 135.865 25.8481C135.852 26.161 135.892 26.4739 135.985 26.7678C136.077 27.0629 136.221 27.3332 136.405 27.5619C136.587 27.7752 136.805 27.9412 137.047 28.0502C137.287 28.1604 137.545 28.2114 137.804 28.1995C138.155 28.1995 138.503 28.1308 138.835 28.0004C139.173 27.8724 139.499 27.7006 139.805 27.4908C140.092 27.2956 140.363 27.076 140.616 26.8342C140.823 26.6446 141.008 26.4277 141.168 26.1871Z" fill="white"/>
</g>
<defs>
<filter id="filter0_dd_1099_46599" x="0" y="0.5" width="29.48" height="38" filterUnits="userSpaceOnUse" color-interpolation-filters="sRGB">
<feFlood flood-opacity="0" result="BackgroundImageFix"/>
<feColorMatrix in="SourceAlpha" type="matrix" values="0 0 0 0 0 0 0 0 0 0 0 0 0 0 0 0 0 0 127 0" result="hardAlpha"/>
<feOffset dy="1"/>
<feGaussianBlur stdDeviation="1"/>
<feColorMatrix type="matrix" values="0 0 0 0 0.0627451 0 0 0 0 0.0941176 0 0 0 0 0.156863 0 0 0 0.06 0"/>
<feBlend mode="normal" in2="BackgroundImageFix" result="effect1_dropShadow_1099_46599"/>
<feColorMatrix in="SourceAlpha" type="matrix" values="0 0 0 0 0 0 0 0 0 0 0 0 0 0 0 0 0 0 127 0" result="hardAlpha"/>
<feOffset dy="1"/>
<feGaussianBlur stdDeviation="1.5"/>
<feColorMatrix type="matrix" values="0 0 0 0 0.0627451 0 0 0 0 0.0941176 0 0 0 0 0.156863 0 0 0 0.1 0"/>
<feBlend mode="normal" in2="effect1_dropShadow_1099_46599" result="effect2_dropShadow_1099_46599"/>
<feBlend mode="normal" in="SourceGraphic" in2="effect2_dropShadow_1099_46599" result="shape"/>
</filter>
</defs>
</svg>
