<svg width="48" height="62" viewBox="0 0 48 62" fill="none" xmlns="http://www.w3.org/2000/svg">
<mask id="mask0_1272_1449" style="mask-type:luminance" maskUnits="userSpaceOnUse" x="0" y="0" width="48" height="62">
<path d="M0 0H48V61.7143H0V0Z" fill="white"/>
</mask>
<g mask="url(#mask0_1272_1449)">
<path d="M12.7197 59.3339C21.6226 62.6139 30.1552 62.8493 38.0454 57.8253C44.7792 53.0185 48.498 46.767 47.9449 38.4562C42.1529 53.9305 30.5826 61.1327 12.7197 59.3339Z" fill="#2E77A0"/>
<path d="M13.9605 45.8151C12.7519 44.6118 11.657 43.2996 10.6896 41.8951C9.19019 42.3591 7.66104 42.7225 6.11133 42.9877C6.88161 44.3797 7.78447 45.6985 8.80847 46.9282C9.78904 48.1031 10.8725 49.1911 12.0496 50.1808C13.9617 49.9179 15.8497 49.5021 17.6953 48.9374C16.3627 48.0063 15.1131 46.9616 13.9605 45.8151ZM38.7262 15.5934C37.5514 13.9777 36.3178 12.4056 35.0279 10.8802C34.9593 12.8871 34.7079 14.8825 34.2736 16.846C35.4622 18.3934 36.6325 20.0437 37.7365 21.7717C38.7742 23.3945 39.7273 25.0631 40.5936 26.7751C41.2496 24.7294 41.7045 22.6288 41.9468 20.5008C40.9452 18.8184 39.8698 17.181 38.7239 15.5934H38.7262Z" fill="#32BCE2"/>
<path d="M37.7364 21.7731C36.5278 26.3781 34.3393 30.6678 31.3204 34.3491C29.7934 36.2177 28.0751 37.9215 26.1936 39.4326C22.572 42.3386 18.4159 44.5067 13.9604 45.8143C15.1079 46.9571 16.3604 48.004 17.6976 48.9388C22.3277 47.5312 26.6191 45.1871 30.3056 42.052L30.2873 41.9971L30.3353 42.0246C35.0991 37.9898 38.6483 32.7108 40.5867 26.7766C39.7226 25.0612 38.7713 23.3912 37.7364 21.7731Z" fill="#2E77A0"/>
<path opacity="0.11" d="M23.8481 0.115079L23.8846 0.0853648L23.8481 0.117365V0.115079Z" fill="#262626"/>
<path opacity="0.27" d="M18.2319 11.5884C19.0205 11.641 19.8182 11.6661 20.6205 11.6638C25.0754 11.6707 29.4891 10.8593 33.6262 9.27755C32.6132 8.14107 31.5713 7.03062 30.5016 5.94727C27.6148 7.07869 24.5816 7.83069 21.4868 8.18726C20.4674 9.19755 19.3679 10.3358 18.2319 11.5884Z" fill="#262626"/>
<path d="M18.2319 11.5884C19.0205 11.641 19.8182 11.6661 20.6205 11.6638C25.0754 11.6707 29.4891 10.8593 33.6262 9.27755C32.6132 8.14107 31.5713 7.03062 30.5016 5.94727C27.6148 7.07869 24.5816 7.83069 21.4868 8.18726C20.4674 9.19755 19.3679 10.3358 18.2319 11.5884Z" fill="#2E77A0"/>
<path opacity="0.27" d="M33.6451 9.28675C32.6266 8.1437 31.577 7.02862 30.4977 5.94275C24.8657 11.2365 17.4851 14.4776 9.62914 15.1085C8.868 16.1439 8.12057 17.2205 7.396 18.3313C8.29885 18.4022 9.21085 18.4388 10.132 18.4388C18.8421 18.4552 27.2381 15.1872 33.6451 9.28675Z" fill="#262626"/>
<path d="M33.6454 9.28675C32.6268 8.1437 31.5773 7.02862 30.4979 5.94275C24.8659 11.2365 17.4854 14.4776 9.62936 15.1085C8.86821 16.1439 8.12078 17.2205 7.39621 18.3313C8.29907 18.4022 9.21107 18.4388 10.1322 18.4388C18.8423 18.4552 27.2383 15.1872 33.6454 9.28675ZM14.5459 27.8102C12.0285 24.9638 9.33196 22.281 6.47278 19.7782C5.74478 20.963 5.06387 22.1762 4.43164 23.4148C6.82281 25.583 9.09652 27.8773 11.2431 30.2879C12.2145 31.3782 13.2088 32.5508 14.1962 33.7919C15.3528 33.049 16.4636 32.2399 17.5219 31.3713C16.563 30.157 15.5706 28.9695 14.5459 27.8102Z" fill="#32BCE2"/>
<path d="M11.2447 30.2865C8.71976 31.955 5.99318 33.296 3.13037 34.2774C3.32694 35.6259 3.63323 36.9539 4.04009 38.2545C7.63848 37.3066 11.0665 35.802 14.2001 33.7951C13.2466 32.5993 12.2611 31.4293 11.2447 30.2865Z" fill="#2E77A0"/>
<path d="M25.7727 30.0445C27.1827 28.598 28.4967 27.061 29.7064 25.4433C28.4976 23.5914 27.2245 21.7823 25.8893 20.0193C24.7246 21.6671 23.4533 23.237 22.0835 24.7187C23.3748 26.4506 24.6052 28.2269 25.7727 30.0445ZM15.1738 8.37131C17.2789 8.49095 19.3903 8.42901 21.4847 8.18617C24.8538 4.83988 27.3407 2.89703 27.343 2.88788C25.3087 1.0296 23.9921 -0.00811768 23.9921 -0.00811768L23.9761 0.00559671L23.9647 0.0147394L23.9533 0.0215966L23.9395 0.035311L23.9258 0.0444538L23.8961 0.0673109L23.8595 0.0970252L23.8321 0.119882L23.8161 0.133597L23.7841 0.158739L23.7613 0.177025L23.7247 0.209025L23.7087 0.218168L23.3818 0.490168C20.4751 2.93343 17.7331 5.56622 15.1738 8.37131Z" fill="#32BCE2"/>
<path d="M18.232 11.5894C19.368 10.3346 20.4674 9.19858 21.4846 8.18829C19.3901 8.43034 17.2788 8.49229 15.1737 8.37344L14.904 8.66829L14.6366 8.96544C14.5452 9.06144 14.4583 9.16201 14.3669 9.26258V9.26944L14.0972 9.57344C13.7314 9.98944 13.3634 10.4146 12.9932 10.8512C14.7192 11.2242 16.4701 11.4709 18.232 11.5894Z" fill="#32BCE2"/>
<path d="M11.3592 53.9971C8.18917 51.75 5.55942 48.8251 3.66088 45.4348C1.79174 42.0905 0.71423 38.3623 0.511168 34.5365C0.234596 36.0222 0.0677392 37.5216 0.0128821 39.0279C-0.185975 44.6988 1.6906 49.7982 5.1306 53.7296C6.19797 54.9467 7.39864 56.04 8.71002 56.9891C11.4477 57.328 14.2149 57.3571 16.9592 57.0759C14.978 56.2733 13.0983 55.2399 11.3592 53.9971Z" fill="#2E77A0"/>
<path d="M47.0504 32.5781C46.4377 30.1363 45.5998 27.7566 44.5475 25.4695C42.0287 41.1724 28.2344 53.3004 11.3589 53.993C9.27893 54.08 7.19527 53.9906 5.13037 53.7255C6.19323 54.937 7.39323 56.0318 8.71209 56.985C11.4489 57.3249 14.2154 57.3548 16.9589 57.0741C31.4161 55.5953 43.2561 45.6935 47.0504 32.5781Z" fill="#32BCE2"/>
</g>
</svg>
